<?xml version="1.0"?>
<svg xmlns="http://www.w3.org/2000/svg" xmlns:xlink="http://www.w3.org/1999/xlink" xmlns:svgjs="http://svgjs.com/svgjs" version="1.1" width="512" height="512" x="0" y="0" viewBox="0 0 64 64" style="enable-background:new 0 0 512 512" xml:space="preserve"><g><linearGradient xmlns="http://www.w3.org/2000/svg" id="New_Gradient_Swatch_1" gradientUnits="userSpaceOnUse" x1="32" x2="32" y1="-1.845" y2="64.299"><stop offset="0" stop-color="#fff33b"/><stop offset=".014" stop-color="#fee72e"/><stop offset=".042" stop-color="#fed51b"/><stop offset=".07" stop-color="#fdca10"/><stop offset=".1" stop-color="#fdc70c"/><stop offset=".4" stop-color="#f3903f"/><stop offset=".8" stop-color="#ed683c"/><stop offset="1" stop-color="#e93e3a"/></linearGradient><linearGradient xmlns="http://www.w3.org/2000/svg" xmlns:xlink="http://www.w3.org/1999/xlink" id="New_Gradient_Swatch_1-2" x1="40" x2="40" xlink:href="#New_Gradient_Swatch_1" y1="-1.845" y2="64.299"/><g xmlns="http://www.w3.org/2000/svg" id="online_shopping-cart-app-mobile-smartphone" data-name="online shopping-cart-app-mobile-smartphone"><path d="m40 9.03v-2.03a5 5 0 0 0 -5-5h-26a5 5 0 0 0 -5 5v4h-1a1 1 0 0 0 -1 1v4a1 1 0 0 0 1 1h1v4h-1a1 1 0 0 0 -1 1v4a1 1 0 0 0 1 1h1v30a5 5 0 0 0 5 5h26a5 5 0 0 0 5-5v-2.03a22.991 22.991 0 0 0 0-45.94zm-26-5.03h16v1a1 1 0 0 1 -1 1h-14a1 1 0 0 1 -1-1zm24 53a3.009 3.009 0 0 1 -3 3h-26a3.009 3.009 0 0 1 -3-3v-50a3.009 3.009 0 0 1 3-3h3v1a3.009 3.009 0 0 0 3 3h14a3.009 3.009 0 0 0 3-3v-1h3a3.009 3.009 0 0 1 3 3v2.03a22.991 22.991 0 0 0 0 45.94zm1-4a21 21 0 1 1 21-21 21.023 21.023 0 0 1 -21 21z" fill="url(#New_Gradient_Swatch_1)" data-original="url(#New_Gradient_Swatch_1)" style=""/><path d="m53.756 25.345a1 1 0 0 0 -.756-.345h-21v-5a1 1 0 0 0 -1-1h-5v2h4v5a.969.969 0 0 0 .01.142l1.99 13.929v3.929a1 1 0 0 0 1 1h1.184a2.966 2.966 0 0 0 -.184 1 3 3 0 0 0 6 0 2.966 2.966 0 0 0 -.184-1h2.368a2.966 2.966 0 0 0 -.184 1 3 3 0 0 0 6 0 2.966 2.966 0 0 0 -.184-1h1.184v-2h-15v-2h17a1 1 0 0 0 .99-.858l2-14a1 1 0 0 0 -.234-.797zm-15.756 20.655a1 1 0 1 1 -1-1 1 1 0 0 1 1 1zm8 0a1 1 0 1 1 -1-1 1 1 0 0 1 1 1zm5.561-17h-2.561v-2h2.847zm-17.693 10-.286-2h1.418v2zm7.132-10h-4v-2h4zm2-2h4v2h-4zm-2 4v4h-4v-4zm-6-2h-2.561l-.286-2h2.847zm0 2v4h-1.7l-.571-4zm2 6h4v2h-4zm6 0h4v2h-4zm0-2v-4h4v4zm6-4h2.275l-.575 4h-1.7zm0 8v-2h1.418l-.285 2z" fill="url(#New_Gradient_Swatch_1-2)" data-original="url(#New_Gradient_Swatch_1-2)" style=""/></g></g></svg>
