<?xml version="1.0"?>
<svg xmlns="http://www.w3.org/2000/svg" xmlns:xlink="http://www.w3.org/1999/xlink" xmlns:svgjs="http://svgjs.com/svgjs" version="1.1" width="512" height="512" x="0" y="0" viewBox="0 0 64 64" style="enable-background:new 0 0 512 512" xml:space="preserve" class=""><g><g xmlns="http://www.w3.org/2000/svg" id="online_shopping-cart-app-mobile-smartphone" data-name="online shopping-cart-app-mobile-smartphone"><path d="M40,9.03V7a5,5,0,0,0-5-5H9A5,5,0,0,0,4,7v4H3a1,1,0,0,0-1,1v4a1,1,0,0,0,1,1H4v4H3a1,1,0,0,0-1,1v4a1,1,0,0,0,1,1H4V57a5,5,0,0,0,5,5H35a5,5,0,0,0,5-5V54.97A22.991,22.991,0,0,0,40,9.03ZM14,4H30V5a1,1,0,0,1-1,1H15a1,1,0,0,1-1-1ZM38,57a3.009,3.009,0,0,1-3,3H9a3.009,3.009,0,0,1-3-3V7A3.009,3.009,0,0,1,9,4h3V5a3.009,3.009,0,0,0,3,3H29a3.009,3.009,0,0,0,3-3V4h3a3.009,3.009,0,0,1,3,3V9.03a22.991,22.991,0,0,0,0,45.94Zm1-4A21,21,0,1,1,60,32,21.023,21.023,0,0,1,39,53Z" fill="#000000" data-original="#000000" style="" class=""/><path d="M53.756,25.345A1,1,0,0,0,53,25H32V20a1,1,0,0,0-1-1H26v2h4v5a.969.969,0,0,0,.01.142L32,40.071V44a1,1,0,0,0,1,1h1.184A2.966,2.966,0,0,0,34,46a3,3,0,0,0,6,0,2.966,2.966,0,0,0-.184-1h2.368A2.966,2.966,0,0,0,42,46a3,3,0,0,0,6,0,2.966,2.966,0,0,0-.184-1H49V43H34V41H51a1,1,0,0,0,.99-.858l2-14A1,1,0,0,0,53.756,25.345ZM38,46a1,1,0,1,1-1-1A1,1,0,0,1,38,46Zm8,0a1,1,0,1,1-1-1A1,1,0,0,1,46,46Zm5.561-17H49V27h2.847ZM33.868,39l-.286-2H35v2ZM41,29H37V27h4Zm2-2h4v2H43Zm-2,4v4H37V31Zm-6-2H32.439l-.286-2H35Zm0,2v4H33.3l-.571-4Zm2,6h4v2H37Zm6,0h4v2H43Zm0-2V31h4v4Zm6-4h2.275L50.7,35H49Zm0,8V37h1.418l-.285,2Z" fill="#000000" data-original="#000000" style="" class=""/></g></g></svg>
